<mxfile host="Electron" modified="2024-03-17T09:55:31.352Z" agent="Mozilla/5.0 (Windows NT 10.0; Win64; x64) AppleWebKit/537.36 (KHTML, like Gecko) draw.io/24.0.4 Chrome/120.0.6099.109 Electron/28.1.0 Safari/537.36" etag="_5-ukBW3xeq-haeiJ_xw" version="24.0.4" type="device">
  <diagram name="Page-1" id="-x5gphuDZI4mSaQj6fNc">
    <mxGraphModel dx="2153" dy="840" grid="1" gridSize="10" guides="1" tooltips="1" connect="1" arrows="1" fold="1" page="1" pageScale="1" pageWidth="850" pageHeight="1100" math="0" shadow="0">
      <root>
        <mxCell id="0" />
        <mxCell id="1" parent="0" />
        <mxCell id="VBX-f8xxqrv5dic0tHlq-1" value="Kullanici" style="swimlane;fontStyle=1;align=center;verticalAlign=top;childLayout=stackLayout;horizontal=1;startSize=26;horizontalStack=0;resizeParent=1;resizeParentMax=0;resizeLast=0;collapsible=1;marginBottom=0;whiteSpace=wrap;html=1;" vertex="1" parent="1">
          <mxGeometry x="290" width="180" height="220" as="geometry" />
        </mxCell>
        <mxCell id="VBX-f8xxqrv5dic0tHlq-2" value="&lt;div&gt;-kullaniciId: String&lt;/div&gt;&lt;div&gt;-kullaniciAdi: String&lt;/div&gt;&lt;div&gt;-email: String&lt;/div&gt;&lt;div&gt;-sifre: String&lt;/div&gt;" style="text;strokeColor=none;fillColor=none;align=left;verticalAlign=top;spacingLeft=4;spacingRight=4;overflow=hidden;rotatable=0;points=[[0,0.5],[1,0.5]];portConstraint=eastwest;whiteSpace=wrap;html=1;" vertex="1" parent="VBX-f8xxqrv5dic0tHlq-1">
          <mxGeometry y="26" width="180" height="64" as="geometry" />
        </mxCell>
        <mxCell id="VBX-f8xxqrv5dic0tHlq-3" value="" style="line;strokeWidth=1;fillColor=none;align=left;verticalAlign=middle;spacingTop=-1;spacingLeft=3;spacingRight=3;rotatable=0;labelPosition=right;points=[];portConstraint=eastwest;strokeColor=inherit;" vertex="1" parent="VBX-f8xxqrv5dic0tHlq-1">
          <mxGeometry y="90" width="180" height="8" as="geometry" />
        </mxCell>
        <mxCell id="VBX-f8xxqrv5dic0tHlq-4" value="&lt;div&gt;+kullaniciIdGoster(): String&lt;/div&gt;&lt;div&gt;+kullaniciAdiGoster(): String&lt;/div&gt;&lt;div&gt;+emailGoster(): String&lt;/div&gt;&lt;div&gt;+sifreAyarla(sifre: String): void&lt;/div&gt;&lt;div&gt;+oturumAc(): void&lt;/div&gt;&lt;div&gt;+oturumKapat(): void&lt;/div&gt;" style="text;strokeColor=none;fillColor=none;align=left;verticalAlign=top;spacingLeft=4;spacingRight=4;overflow=hidden;rotatable=0;points=[[0,0.5],[1,0.5]];portConstraint=eastwest;whiteSpace=wrap;html=1;" vertex="1" parent="VBX-f8xxqrv5dic0tHlq-1">
          <mxGeometry y="98" width="180" height="122" as="geometry" />
        </mxCell>
        <mxCell id="VBX-f8xxqrv5dic0tHlq-5" value="Egitmen" style="swimlane;fontStyle=1;align=center;verticalAlign=top;childLayout=stackLayout;horizontal=1;startSize=26;horizontalStack=0;resizeParent=1;resizeParentMax=0;resizeLast=0;collapsible=1;marginBottom=0;whiteSpace=wrap;html=1;" vertex="1" parent="1">
          <mxGeometry x="520" y="150" width="310" height="110" as="geometry" />
        </mxCell>
        <mxCell id="VBX-f8xxqrv5dic0tHlq-6" value="-verilenKurslar: List&amp;lt;Kurs&amp;gt;" style="text;strokeColor=none;fillColor=none;align=left;verticalAlign=top;spacingLeft=4;spacingRight=4;overflow=hidden;rotatable=0;points=[[0,0.5],[1,0.5]];portConstraint=eastwest;whiteSpace=wrap;html=1;" vertex="1" parent="VBX-f8xxqrv5dic0tHlq-5">
          <mxGeometry y="26" width="310" height="24" as="geometry" />
        </mxCell>
        <mxCell id="VBX-f8xxqrv5dic0tHlq-7" value="" style="line;strokeWidth=1;fillColor=none;align=left;verticalAlign=middle;spacingTop=-1;spacingLeft=3;spacingRight=3;rotatable=0;labelPosition=right;points=[];portConstraint=eastwest;strokeColor=inherit;" vertex="1" parent="VBX-f8xxqrv5dic0tHlq-5">
          <mxGeometry y="50" width="310" height="8" as="geometry" />
        </mxCell>
        <mxCell id="VBX-f8xxqrv5dic0tHlq-8" value="&lt;div&gt;+kursOlustur(kursAdi: String): void&lt;/div&gt;&lt;div&gt;+icerikEkle(kurs: Kurs, icerik: Icerik): void&lt;/div&gt;&lt;div&gt;+odevNotlandir(assignment: Assignment, not: Not): void&lt;/div&gt;" style="text;strokeColor=none;fillColor=none;align=left;verticalAlign=top;spacingLeft=4;spacingRight=4;overflow=hidden;rotatable=0;points=[[0,0.5],[1,0.5]];portConstraint=eastwest;whiteSpace=wrap;html=1;" vertex="1" parent="VBX-f8xxqrv5dic0tHlq-5">
          <mxGeometry y="58" width="310" height="52" as="geometry" />
        </mxCell>
        <mxCell id="VBX-f8xxqrv5dic0tHlq-22" style="edgeStyle=orthogonalEdgeStyle;rounded=0;orthogonalLoop=1;jettySize=auto;html=1;exitX=0.5;exitY=0;exitDx=0;exitDy=0;entryX=-0.02;entryY=1.089;entryDx=0;entryDy=0;entryPerimeter=0;" edge="1" parent="1" source="VBX-f8xxqrv5dic0tHlq-9" target="VBX-f8xxqrv5dic0tHlq-2">
          <mxGeometry relative="1" as="geometry" />
        </mxCell>
        <mxCell id="VBX-f8xxqrv5dic0tHlq-9" value="&lt;div&gt;&lt;span style=&quot;background-color: initial;&quot;&gt;Ogrenci&lt;/span&gt;&lt;br&gt;&lt;/div&gt;" style="swimlane;fontStyle=1;align=center;verticalAlign=top;childLayout=stackLayout;horizontal=1;startSize=26;horizontalStack=0;resizeParent=1;resizeParentMax=0;resizeLast=0;collapsible=1;marginBottom=0;whiteSpace=wrap;html=1;" vertex="1" parent="1">
          <mxGeometry x="20" y="160" width="230" height="120" as="geometry" />
        </mxCell>
        <mxCell id="VBX-f8xxqrv5dic0tHlq-10" value="&lt;div&gt;-alinanKurslar: List&amp;lt;Kurs&amp;gt;&lt;/div&gt;&lt;div&gt;-tamamlananOdevler: List&amp;lt;Odev&amp;gt;&lt;/div&gt;" style="text;strokeColor=none;fillColor=none;align=left;verticalAlign=top;spacingLeft=4;spacingRight=4;overflow=hidden;rotatable=0;points=[[0,0.5],[1,0.5]];portConstraint=eastwest;whiteSpace=wrap;html=1;" vertex="1" parent="VBX-f8xxqrv5dic0tHlq-9">
          <mxGeometry y="26" width="230" height="34" as="geometry" />
        </mxCell>
        <mxCell id="VBX-f8xxqrv5dic0tHlq-11" value="" style="line;strokeWidth=1;fillColor=none;align=left;verticalAlign=middle;spacingTop=-1;spacingLeft=3;spacingRight=3;rotatable=0;labelPosition=right;points=[];portConstraint=eastwest;strokeColor=inherit;" vertex="1" parent="VBX-f8xxqrv5dic0tHlq-9">
          <mxGeometry y="60" width="230" height="8" as="geometry" />
        </mxCell>
        <mxCell id="VBX-f8xxqrv5dic0tHlq-12" value="&lt;div&gt;+kayit(course: Kurs): void&lt;/div&gt;&lt;div&gt;+odevGonder(odev: Odev): void&lt;/div&gt;&lt;div&gt;+notIncele(): List&amp;lt;Not&amp;gt;&lt;/div&gt;" style="text;strokeColor=none;fillColor=none;align=left;verticalAlign=top;spacingLeft=4;spacingRight=4;overflow=hidden;rotatable=0;points=[[0,0.5],[1,0.5]];portConstraint=eastwest;whiteSpace=wrap;html=1;" vertex="1" parent="VBX-f8xxqrv5dic0tHlq-9">
          <mxGeometry y="68" width="230" height="52" as="geometry" />
        </mxCell>
        <mxCell id="VBX-f8xxqrv5dic0tHlq-17" value="Kurs" style="swimlane;fontStyle=1;align=center;verticalAlign=top;childLayout=stackLayout;horizontal=1;startSize=26;horizontalStack=0;resizeParent=1;resizeParentMax=0;resizeLast=0;collapsible=1;marginBottom=0;whiteSpace=wrap;html=1;" vertex="1" parent="1">
          <mxGeometry x="610" y="330" width="220" height="230" as="geometry" />
        </mxCell>
        <mxCell id="VBX-f8xxqrv5dic0tHlq-18" value="&lt;div&gt;-kursId: String&lt;/div&gt;&lt;div&gt;-kursAdi: String&lt;/div&gt;&lt;div&gt;-egitmen: Egitmen&lt;/div&gt;&lt;div&gt;-kayitliOgrenciler: List&amp;lt;Ogrenci&amp;gt;&lt;/div&gt;&lt;div&gt;-kursIcerik: List&amp;lt;Icerik&amp;gt;&lt;/div&gt;" style="text;strokeColor=none;fillColor=none;align=left;verticalAlign=top;spacingLeft=4;spacingRight=4;overflow=hidden;rotatable=0;points=[[0,0.5],[1,0.5]];portConstraint=eastwest;whiteSpace=wrap;html=1;" vertex="1" parent="VBX-f8xxqrv5dic0tHlq-17">
          <mxGeometry y="26" width="220" height="84" as="geometry" />
        </mxCell>
        <mxCell id="VBX-f8xxqrv5dic0tHlq-19" value="" style="line;strokeWidth=1;fillColor=none;align=left;verticalAlign=middle;spacingTop=-1;spacingLeft=3;spacingRight=3;rotatable=0;labelPosition=right;points=[];portConstraint=eastwest;strokeColor=inherit;" vertex="1" parent="VBX-f8xxqrv5dic0tHlq-17">
          <mxGeometry y="110" width="220" height="8" as="geometry" />
        </mxCell>
        <mxCell id="VBX-f8xxqrv5dic0tHlq-20" value="&lt;div&gt;+kursIdGoster(): String&lt;/div&gt;&lt;div&gt;+kursAdiGoster(): String&lt;/div&gt;&lt;div&gt;+egitmenGoster(): Egitmen&lt;/div&gt;&lt;div&gt;+kayitliOgrenciGoster(): List&amp;lt;Ogrenci&amp;gt;&lt;/div&gt;&lt;div&gt;+icerikGoster(): List&amp;lt;Icerik&amp;gt;&lt;/div&gt;&lt;div&gt;+ogrenciEkle(ogrenci: Ogrenci): void&lt;/div&gt;&lt;div&gt;+icerikEkle(icerik: Icerik): void&lt;/div&gt;" style="text;strokeColor=none;fillColor=none;align=left;verticalAlign=top;spacingLeft=4;spacingRight=4;overflow=hidden;rotatable=0;points=[[0,0.5],[1,0.5]];portConstraint=eastwest;whiteSpace=wrap;html=1;" vertex="1" parent="VBX-f8xxqrv5dic0tHlq-17">
          <mxGeometry y="118" width="220" height="112" as="geometry" />
        </mxCell>
        <mxCell id="VBX-f8xxqrv5dic0tHlq-21" style="edgeStyle=orthogonalEdgeStyle;rounded=0;orthogonalLoop=1;jettySize=auto;html=1;exitX=0.5;exitY=0;exitDx=0;exitDy=0;entryX=0.98;entryY=1.119;entryDx=0;entryDy=0;entryPerimeter=0;" edge="1" parent="1" source="VBX-f8xxqrv5dic0tHlq-5" target="VBX-f8xxqrv5dic0tHlq-2">
          <mxGeometry relative="1" as="geometry" />
        </mxCell>
        <mxCell id="VBX-f8xxqrv5dic0tHlq-23" value="Inheritance" style="text;html=1;align=center;verticalAlign=middle;whiteSpace=wrap;rounded=0;" vertex="1" parent="1">
          <mxGeometry x="190" y="68" width="60" height="30" as="geometry" />
        </mxCell>
        <mxCell id="VBX-f8xxqrv5dic0tHlq-24" value="Inheritance" style="text;html=1;align=center;verticalAlign=middle;whiteSpace=wrap;rounded=0;" vertex="1" parent="1">
          <mxGeometry x="510" y="68" width="60" height="30" as="geometry" />
        </mxCell>
        <mxCell id="VBX-f8xxqrv5dic0tHlq-25" value="Odev" style="swimlane;fontStyle=1;align=center;verticalAlign=top;childLayout=stackLayout;horizontal=1;startSize=26;horizontalStack=0;resizeParent=1;resizeParentMax=0;resizeLast=0;collapsible=1;marginBottom=0;whiteSpace=wrap;html=1;" vertex="1" parent="1">
          <mxGeometry x="250" y="390" width="260" height="170" as="geometry" />
        </mxCell>
        <mxCell id="VBX-f8xxqrv5dic0tHlq-26" value="&lt;div&gt;-odevId: String&lt;/div&gt;&lt;div&gt;-odevAdi: String&lt;/div&gt;&lt;div&gt;-kurs: Kurs&lt;/div&gt;&lt;div&gt;-sonTarih: SonTarih&lt;/div&gt;" style="text;strokeColor=none;fillColor=none;align=left;verticalAlign=top;spacingLeft=4;spacingRight=4;overflow=hidden;rotatable=0;points=[[0,0.5],[1,0.5]];portConstraint=eastwest;whiteSpace=wrap;html=1;" vertex="1" parent="VBX-f8xxqrv5dic0tHlq-25">
          <mxGeometry y="26" width="260" height="64" as="geometry" />
        </mxCell>
        <mxCell id="VBX-f8xxqrv5dic0tHlq-27" value="" style="line;strokeWidth=1;fillColor=none;align=left;verticalAlign=middle;spacingTop=-1;spacingLeft=3;spacingRight=3;rotatable=0;labelPosition=right;points=[];portConstraint=eastwest;strokeColor=inherit;" vertex="1" parent="VBX-f8xxqrv5dic0tHlq-25">
          <mxGeometry y="90" width="260" height="8" as="geometry" />
        </mxCell>
        <mxCell id="VBX-f8xxqrv5dic0tHlq-28" value="&lt;div&gt;+odevIdGoster(): String&lt;/div&gt;&lt;div&gt;+odevAdiGoster(): String&lt;/div&gt;&lt;div&gt;+kursGoster(): Kurs&lt;/div&gt;&lt;div&gt;+sonTarihGoster(): SonTarih&lt;/div&gt;" style="text;strokeColor=none;fillColor=none;align=left;verticalAlign=top;spacingLeft=4;spacingRight=4;overflow=hidden;rotatable=0;points=[[0,0.5],[1,0.5]];portConstraint=eastwest;whiteSpace=wrap;html=1;" vertex="1" parent="VBX-f8xxqrv5dic0tHlq-25">
          <mxGeometry y="98" width="260" height="72" as="geometry" />
        </mxCell>
        <mxCell id="VBX-f8xxqrv5dic0tHlq-29" value="Not" style="swimlane;fontStyle=1;align=center;verticalAlign=top;childLayout=stackLayout;horizontal=1;startSize=26;horizontalStack=0;resizeParent=1;resizeParentMax=0;resizeLast=0;collapsible=1;marginBottom=0;whiteSpace=wrap;html=1;" vertex="1" parent="1">
          <mxGeometry x="160" y="620" width="260" height="160" as="geometry" />
        </mxCell>
        <mxCell id="VBX-f8xxqrv5dic0tHlq-30" value="&lt;div&gt;-notId: String&lt;/div&gt;&lt;div&gt;-puan: double&lt;/div&gt;&lt;div&gt;-geriDonus: String&lt;/div&gt;" style="text;strokeColor=none;fillColor=none;align=left;verticalAlign=top;spacingLeft=4;spacingRight=4;overflow=hidden;rotatable=0;points=[[0,0.5],[1,0.5]];portConstraint=eastwest;whiteSpace=wrap;html=1;" vertex="1" parent="VBX-f8xxqrv5dic0tHlq-29">
          <mxGeometry y="26" width="260" height="54" as="geometry" />
        </mxCell>
        <mxCell id="VBX-f8xxqrv5dic0tHlq-31" value="" style="line;strokeWidth=1;fillColor=none;align=left;verticalAlign=middle;spacingTop=-1;spacingLeft=3;spacingRight=3;rotatable=0;labelPosition=right;points=[];portConstraint=eastwest;strokeColor=inherit;" vertex="1" parent="VBX-f8xxqrv5dic0tHlq-29">
          <mxGeometry y="80" width="260" height="8" as="geometry" />
        </mxCell>
        <mxCell id="VBX-f8xxqrv5dic0tHlq-32" value="&lt;div&gt;+notIdGoster(): String&lt;/div&gt;&lt;div&gt;+puanGoster(): double&lt;/div&gt;&lt;div&gt;+geriDonusGoster(): String&lt;/div&gt;&lt;div&gt;+geriDonusAyarla(feedback: String): void&lt;/div&gt;" style="text;strokeColor=none;fillColor=none;align=left;verticalAlign=top;spacingLeft=4;spacingRight=4;overflow=hidden;rotatable=0;points=[[0,0.5],[1,0.5]];portConstraint=eastwest;whiteSpace=wrap;html=1;" vertex="1" parent="VBX-f8xxqrv5dic0tHlq-29">
          <mxGeometry y="88" width="260" height="72" as="geometry" />
        </mxCell>
        <mxCell id="VBX-f8xxqrv5dic0tHlq-33" value="Gonderim" style="swimlane;fontStyle=1;align=center;verticalAlign=top;childLayout=stackLayout;horizontal=1;startSize=26;horizontalStack=0;resizeParent=1;resizeParentMax=0;resizeLast=0;collapsible=1;marginBottom=0;whiteSpace=wrap;html=1;" vertex="1" parent="1">
          <mxGeometry x="-130" y="360" width="260" height="240" as="geometry" />
        </mxCell>
        <mxCell id="VBX-f8xxqrv5dic0tHlq-34" value="&lt;div&gt;-gonderimId: String&lt;/div&gt;&lt;div&gt;-ogrenci: Ogrenci&lt;/div&gt;&lt;div&gt;-odev: Odev&lt;/div&gt;&lt;div&gt;-gonderimTarih: Date&lt;/div&gt;&lt;div&gt;-icerik: String&lt;/div&gt;&lt;div&gt;-not: Not&lt;/div&gt;" style="text;strokeColor=none;fillColor=none;align=left;verticalAlign=top;spacingLeft=4;spacingRight=4;overflow=hidden;rotatable=0;points=[[0,0.5],[1,0.5]];portConstraint=eastwest;whiteSpace=wrap;html=1;" vertex="1" parent="VBX-f8xxqrv5dic0tHlq-33">
          <mxGeometry y="26" width="260" height="94" as="geometry" />
        </mxCell>
        <mxCell id="VBX-f8xxqrv5dic0tHlq-35" value="" style="line;strokeWidth=1;fillColor=none;align=left;verticalAlign=middle;spacingTop=-1;spacingLeft=3;spacingRight=3;rotatable=0;labelPosition=right;points=[];portConstraint=eastwest;strokeColor=inherit;" vertex="1" parent="VBX-f8xxqrv5dic0tHlq-33">
          <mxGeometry y="120" width="260" height="8" as="geometry" />
        </mxCell>
        <mxCell id="VBX-f8xxqrv5dic0tHlq-36" value="&lt;div&gt;+gonderimIdGoster(): String&lt;/div&gt;&lt;div&gt;+ogrenciGoster(): Ogrenci&lt;/div&gt;&lt;div&gt;+odevGoster(): Odev&lt;/div&gt;&lt;div&gt;+gonderimTarihGoster(): Date&lt;/div&gt;&lt;div&gt;+icerikGoster(): String&lt;/div&gt;&lt;div&gt;+notGoster(): Not&lt;/div&gt;&lt;div&gt;+notAyarla(not: Not): void&lt;/div&gt;" style="text;strokeColor=none;fillColor=none;align=left;verticalAlign=top;spacingLeft=4;spacingRight=4;overflow=hidden;rotatable=0;points=[[0,0.5],[1,0.5]];portConstraint=eastwest;whiteSpace=wrap;html=1;" vertex="1" parent="VBX-f8xxqrv5dic0tHlq-33">
          <mxGeometry y="128" width="260" height="112" as="geometry" />
        </mxCell>
        <mxCell id="VBX-f8xxqrv5dic0tHlq-37" value="Icerik" style="swimlane;fontStyle=1;align=center;verticalAlign=top;childLayout=stackLayout;horizontal=1;startSize=26;horizontalStack=0;resizeParent=1;resizeParentMax=0;resizeLast=0;collapsible=1;marginBottom=0;whiteSpace=wrap;html=1;" vertex="1" parent="1">
          <mxGeometry x="545" y="650" width="260" height="180" as="geometry" />
        </mxCell>
        <mxCell id="VBX-f8xxqrv5dic0tHlq-38" value="&lt;div&gt;-icerikId: String&lt;/div&gt;&lt;div&gt;-icerikBaslik: String&lt;/div&gt;&lt;div&gt;-icerikTanim: String&lt;/div&gt;&lt;div&gt;-kurs: Kurs&lt;/div&gt;" style="text;strokeColor=none;fillColor=none;align=left;verticalAlign=top;spacingLeft=4;spacingRight=4;overflow=hidden;rotatable=0;points=[[0,0.5],[1,0.5]];portConstraint=eastwest;whiteSpace=wrap;html=1;" vertex="1" parent="VBX-f8xxqrv5dic0tHlq-37">
          <mxGeometry y="26" width="260" height="74" as="geometry" />
        </mxCell>
        <mxCell id="VBX-f8xxqrv5dic0tHlq-39" value="" style="line;strokeWidth=1;fillColor=none;align=left;verticalAlign=middle;spacingTop=-1;spacingLeft=3;spacingRight=3;rotatable=0;labelPosition=right;points=[];portConstraint=eastwest;strokeColor=inherit;" vertex="1" parent="VBX-f8xxqrv5dic0tHlq-37">
          <mxGeometry y="100" width="260" height="8" as="geometry" />
        </mxCell>
        <mxCell id="VBX-f8xxqrv5dic0tHlq-40" value="&lt;div&gt;+icerikIdGoster(): String&lt;/div&gt;&lt;div&gt;+icerikBaslikGoster(): String&lt;/div&gt;&lt;div&gt;+icerikTanimGoster(): String&lt;/div&gt;&lt;div&gt;+kursGoster(): Kurs&lt;/div&gt;" style="text;strokeColor=none;fillColor=none;align=left;verticalAlign=top;spacingLeft=4;spacingRight=4;overflow=hidden;rotatable=0;points=[[0,0.5],[1,0.5]];portConstraint=eastwest;whiteSpace=wrap;html=1;" vertex="1" parent="VBX-f8xxqrv5dic0tHlq-37">
          <mxGeometry y="108" width="260" height="72" as="geometry" />
        </mxCell>
        <mxCell id="VBX-f8xxqrv5dic0tHlq-41" value="" style="endArrow=none;html=1;rounded=0;" edge="1" parent="1" source="VBX-f8xxqrv5dic0tHlq-17" target="VBX-f8xxqrv5dic0tHlq-8">
          <mxGeometry width="50" height="50" relative="1" as="geometry">
            <mxPoint x="620" y="320" as="sourcePoint" />
            <mxPoint x="670" y="270" as="targetPoint" />
          </mxGeometry>
        </mxCell>
        <mxCell id="VBX-f8xxqrv5dic0tHlq-42" value="1" style="text;html=1;align=center;verticalAlign=middle;whiteSpace=wrap;rounded=0;" vertex="1" parent="1">
          <mxGeometry x="630" y="260" width="60" height="30" as="geometry" />
        </mxCell>
        <mxCell id="VBX-f8xxqrv5dic0tHlq-43" value="0...n" style="text;html=1;align=center;verticalAlign=middle;whiteSpace=wrap;rounded=0;" vertex="1" parent="1">
          <mxGeometry x="650" y="300" width="60" height="30" as="geometry" />
        </mxCell>
        <mxCell id="VBX-f8xxqrv5dic0tHlq-44" value="" style="endArrow=none;html=1;rounded=0;exitX=1;exitY=0.5;exitDx=0;exitDy=0;" edge="1" parent="1" source="VBX-f8xxqrv5dic0tHlq-12" target="VBX-f8xxqrv5dic0tHlq-17">
          <mxGeometry width="50" height="50" relative="1" as="geometry">
            <mxPoint x="320" y="300" as="sourcePoint" />
            <mxPoint x="370" y="250" as="targetPoint" />
          </mxGeometry>
        </mxCell>
        <mxCell id="VBX-f8xxqrv5dic0tHlq-45" value="0...n" style="text;html=1;align=center;verticalAlign=middle;whiteSpace=wrap;rounded=0;" vertex="1" parent="1">
          <mxGeometry x="560" y="370" width="60" height="30" as="geometry" />
        </mxCell>
        <mxCell id="VBX-f8xxqrv5dic0tHlq-47" value="" style="endArrow=none;html=1;rounded=0;exitX=0.439;exitY=-0.008;exitDx=0;exitDy=0;exitPerimeter=0;" edge="1" parent="1" source="VBX-f8xxqrv5dic0tHlq-48" target="VBX-f8xxqrv5dic0tHlq-20">
          <mxGeometry width="50" height="50" relative="1" as="geometry">
            <mxPoint x="660" y="610" as="sourcePoint" />
            <mxPoint x="710" y="560" as="targetPoint" />
          </mxGeometry>
        </mxCell>
        <mxCell id="VBX-f8xxqrv5dic0tHlq-50" value="" style="endArrow=none;html=1;rounded=0;exitX=0.439;exitY=-0.008;exitDx=0;exitDy=0;exitPerimeter=0;entryX=0.494;entryY=1.021;entryDx=0;entryDy=0;entryPerimeter=0;" edge="1" parent="1" source="VBX-f8xxqrv5dic0tHlq-48" target="VBX-f8xxqrv5dic0tHlq-20">
          <mxGeometry width="50" height="50" relative="1" as="geometry">
            <mxPoint x="659" y="649" as="sourcePoint" />
            <mxPoint x="663" y="560" as="targetPoint" />
          </mxGeometry>
        </mxCell>
        <mxCell id="VBX-f8xxqrv5dic0tHlq-51" value="0...n" style="text;html=1;align=center;verticalAlign=middle;whiteSpace=wrap;rounded=0;" vertex="1" parent="1">
          <mxGeometry x="620" y="620" width="60" height="30" as="geometry" />
        </mxCell>
        <mxCell id="VBX-f8xxqrv5dic0tHlq-52" value="" style="endArrow=none;html=1;rounded=0;exitX=1.004;exitY=0.948;exitDx=0;exitDy=0;exitPerimeter=0;entryX=0.015;entryY=0.001;entryDx=0;entryDy=0;entryPerimeter=0;" edge="1" parent="1" source="VBX-f8xxqrv5dic0tHlq-26" target="VBX-f8xxqrv5dic0tHlq-20">
          <mxGeometry width="50" height="50" relative="1" as="geometry">
            <mxPoint x="420" y="470" as="sourcePoint" />
            <mxPoint x="470" y="420" as="targetPoint" />
          </mxGeometry>
        </mxCell>
        <mxCell id="VBX-f8xxqrv5dic0tHlq-53" value="" style="endArrow=none;html=1;rounded=0;exitX=0.11;exitY=0.017;exitDx=0;exitDy=0;exitPerimeter=0;" edge="1" parent="1" source="VBX-f8xxqrv5dic0tHlq-25" target="VBX-f8xxqrv5dic0tHlq-12">
          <mxGeometry width="50" height="50" relative="1" as="geometry">
            <mxPoint x="470" y="400" as="sourcePoint" />
            <mxPoint x="520" y="350" as="targetPoint" />
          </mxGeometry>
        </mxCell>
        <mxCell id="VBX-f8xxqrv5dic0tHlq-54" value="" style="endArrow=none;html=1;rounded=0;exitX=0.25;exitY=0;exitDx=0;exitDy=0;" edge="1" parent="1" source="VBX-f8xxqrv5dic0tHlq-29" target="VBX-f8xxqrv5dic0tHlq-12">
          <mxGeometry width="50" height="50" relative="1" as="geometry">
            <mxPoint x="60" y="860" as="sourcePoint" />
            <mxPoint x="110" y="810" as="targetPoint" />
          </mxGeometry>
        </mxCell>
        <mxCell id="VBX-f8xxqrv5dic0tHlq-55" value="" style="endArrow=none;html=1;rounded=0;entryX=0.408;entryY=1.019;entryDx=0;entryDy=0;entryPerimeter=0;" edge="1" parent="1" source="VBX-f8xxqrv5dic0tHlq-29" target="VBX-f8xxqrv5dic0tHlq-28">
          <mxGeometry width="50" height="50" relative="1" as="geometry">
            <mxPoint x="258" y="570" as="sourcePoint" />
            <mxPoint x="262" y="500" as="targetPoint" />
          </mxGeometry>
        </mxCell>
        <mxCell id="VBX-f8xxqrv5dic0tHlq-56" value="" style="endArrow=none;html=1;rounded=0;exitX=0.75;exitY=0;exitDx=0;exitDy=0;entryX=0.229;entryY=1.064;entryDx=0;entryDy=0;entryPerimeter=0;" edge="1" parent="1" source="VBX-f8xxqrv5dic0tHlq-33" target="VBX-f8xxqrv5dic0tHlq-12">
          <mxGeometry width="50" height="50" relative="1" as="geometry">
            <mxPoint x="590" y="470" as="sourcePoint" />
            <mxPoint x="50" y="380" as="targetPoint" />
          </mxGeometry>
        </mxCell>
        <mxCell id="VBX-f8xxqrv5dic0tHlq-57" value="" style="endArrow=none;html=1;rounded=0;entryX=0.064;entryY=-0.056;entryDx=0;entryDy=0;entryPerimeter=0;" edge="1" parent="1" source="VBX-f8xxqrv5dic0tHlq-33" target="VBX-f8xxqrv5dic0tHlq-28">
          <mxGeometry width="50" height="50" relative="1" as="geometry">
            <mxPoint x="180" y="590" as="sourcePoint" />
            <mxPoint x="140" y="460" as="targetPoint" />
          </mxGeometry>
        </mxCell>
        <mxCell id="VBX-f8xxqrv5dic0tHlq-60" value="" style="endArrow=none;html=1;rounded=0;exitX=-0.015;exitY=0.883;exitDx=0;exitDy=0;exitPerimeter=0;" edge="1" parent="1" source="VBX-f8xxqrv5dic0tHlq-30" target="VBX-f8xxqrv5dic0tHlq-36">
          <mxGeometry width="50" height="50" relative="1" as="geometry">
            <mxPoint x="50" y="890" as="sourcePoint" />
            <mxPoint x="110" y="660" as="targetPoint" />
          </mxGeometry>
        </mxCell>
        <mxCell id="VBX-f8xxqrv5dic0tHlq-63" value="0...n" style="text;html=1;align=center;verticalAlign=middle;whiteSpace=wrap;rounded=0;" vertex="1" parent="1">
          <mxGeometry x="240" y="240" width="60" height="30" as="geometry" />
        </mxCell>
        <mxCell id="VBX-f8xxqrv5dic0tHlq-64" value="0...n" style="text;html=1;align=center;verticalAlign=middle;whiteSpace=wrap;rounded=0;" vertex="1" parent="1">
          <mxGeometry x="250" y="360" width="60" height="30" as="geometry" />
        </mxCell>
        <mxCell id="VBX-f8xxqrv5dic0tHlq-65" value="1" style="text;html=1;align=center;verticalAlign=middle;whiteSpace=wrap;rounded=0;" vertex="1" parent="1">
          <mxGeometry x="160" y="280" width="60" height="20" as="geometry" />
        </mxCell>
        <mxCell id="VBX-f8xxqrv5dic0tHlq-69" value="" style="endArrow=none;html=1;rounded=0;exitX=0.439;exitY=-0.008;exitDx=0;exitDy=0;exitPerimeter=0;entryX=0.75;entryY=0;entryDx=0;entryDy=0;" edge="1" parent="1" source="VBX-f8xxqrv5dic0tHlq-37" target="VBX-f8xxqrv5dic0tHlq-48">
          <mxGeometry width="50" height="50" relative="1" as="geometry">
            <mxPoint x="659" y="649" as="sourcePoint" />
            <mxPoint x="700" y="589" as="targetPoint" />
          </mxGeometry>
        </mxCell>
        <mxCell id="VBX-f8xxqrv5dic0tHlq-48" value="1" style="text;html=1;align=center;verticalAlign=middle;whiteSpace=wrap;rounded=0;" vertex="1" parent="1">
          <mxGeometry x="670" y="558" width="60" height="30" as="geometry" />
        </mxCell>
      </root>
    </mxGraphModel>
  </diagram>
</mxfile>
